<mxfile host="app.diagrams.net" modified="2023-05-09T16:32:54.608Z" agent="Mozilla/5.0 (Windows NT 10.0; Win64; x64) AppleWebKit/537.36 (KHTML, like Gecko) Chrome/113.0.0.0 Safari/537.36 Edg/113.0.1774.35" version="21.2.9" etag="GOp9ox-5JCoYJtOwusF_" type="github">
  <diagram name="페이지-1" id="QLIUDPdh5m0sPUEWWd7F">
    <mxGraphModel>
      <root>
        <mxCell id="0" />
        <mxCell id="1" parent="0" />
      </root>
    </mxGraphModel>
  </diagram>
</mxfile>
